# xmcd CD database file
# Copyright (C) 1993-1998 Ti Kan
#
# Track frame offsets:
# 150
# 10025
# 22232
# 31345
# 41635
# 51865
# 66715
# 77720
# 86122
# 94660
# 104297
# 114257
# 129380
# 142050
#
# Disc length: 2043 seconds
# Revision: 0
# Processed by: cddbd v1.4b41PL1 Copyright (c) Steve Scherf et al.
# Submitted via: CDSpectrumPro v3.3.333
#
DISCID=be07f90e
DTITLE=Slim Dusty - I'll Take Mine Country Style
DYEAR=1900
DGENRE=
TTITLE0=Cunnamulla Feller
TTITLE1=Daddy's Girl
TTITLE2=Christmas On The Station
TTITLE3=You'D Better Be Waiting
TTITLE4=I'll Take Mine Country Style
TTITLE5=The Drunkard
TTITLE6=My Pal Alcohol
TTITLE7=Along The Road To Gundagai
TTITLE8=The Ace Of Hearts
TTITLE9=If You Walk Out That Gate
TTITLE10=Maple Sugar Sweetheart
TTITLE11=Where The Desert Flowers Bloom
TTITLE12=Rose Of Red River Valley
TTITLE13=Somebody's Mother
EXTD=
EXTT0=
EXTT1=
EXTT2=
EXTT3=
EXTT4=
EXTT5=
EXTT6=
EXTT7=
EXTT8=
EXTT9=
EXTT10=
EXTT11=
EXTT12=
EXTT13=
PLAYORDER=
